<svg width="24" height="24" viewBox="0 0 24 24" fill="none" xmlns="http://www.w3.org/2000/svg">
<mask id="mask0_14_169" style="mask-type:alpha" maskUnits="userSpaceOnUse" x="0" y="0" width="24" height="24">
<rect width="24" height="24" fill="#D9D9D9" style="fill:#D9D9D9;fill:color(display-p3 0.8510 0.8510 0.8510);fill-opacity:1;"/>
</mask>
<g mask="url(#mask0_14_169)">
<path d="M6.5 16C6.91667 16 7.27083 15.8542 7.5625 15.5625C7.85417 15.2708 8 14.9167 8 14.5C8 14.0833 7.85417 13.7292 7.5625 13.4375C7.27083 13.1458 6.91667 13 6.5 13C6.08333 13 5.72917 13.1458 5.4375 13.4375C5.14583 13.7292 5 14.0833 5 14.5C5 14.9167 5.14583 15.2708 5.4375 15.5625C5.72917 15.8542 6.08333 16 6.5 16ZM15.5 16C15.8333 16 16.1333 15.9 16.4 15.7C16.6667 15.5 16.8417 15.2417 16.925 14.925C16.5917 14.8583 16.275 14.7458 15.975 14.5875C15.675 14.4292 15.4 14.225 15.15 13.975L14.525 13.35C14.3583 13.4833 14.2292 13.65 14.1375 13.85C14.0458 14.05 14 14.2667 14 14.5C14 14.9167 14.1458 15.2708 14.4375 15.5625C14.7292 15.8542 15.0833 16 15.5 16ZM5 19V20C5 20.2833 4.90417 20.5208 4.7125 20.7125C4.52083 20.9042 4.28333 21 4 21H3C2.71667 21 2.47917 20.9042 2.2875 20.7125C2.09583 20.5208 2 20.2833 2 20V12L4.1 6C4.2 5.7 4.37917 5.45833 4.6375 5.275C4.89583 5.09167 5.18333 5 5.5 5H9V6.375C9 6.475 9.00417 6.57917 9.0125 6.6875C9.02083 6.79583 9.03333 6.9 9.05 7H5.85L4.8 10H11.175L13.175 12H4V17H18V14.975C18.3667 14.9417 18.7208 14.85 19.0625 14.7C19.4042 14.55 19.7167 14.3417 20 14.075V20C20 20.2833 19.9042 20.5208 19.7125 20.7125C19.5208 20.9042 19.2833 21 19 21H18C17.7167 21 17.4792 20.9042 17.2875 20.7125C17.0958 20.5208 17 20.2833 17 20V19H5ZM15 6C15.2833 6 15.5208 5.90417 15.7125 5.7125C15.9042 5.52083 16 5.28333 16 5C16 4.71667 15.9042 4.47917 15.7125 4.2875C15.5208 4.09583 15.2833 4 15 4C14.7167 4 14.4792 4.09583 14.2875 4.2875C14.0958 4.47917 14 4.71667 14 5C14 5.28333 14.0958 5.52083 14.2875 5.7125C14.4792 5.90417 14.7167 6 15 6ZM16.55 12.55L11.45 7.45C11.3167 7.31667 11.2083 7.15417 11.125 6.9625C11.0417 6.77083 11 6.575 11 6.375V2.5C11 2.08333 11.1458 1.72917 11.4375 1.4375C11.7292 1.14583 12.0833 1 12.5 1H16.375C16.575 1 16.7708 1.04167 16.9625 1.125C17.1542 1.20833 17.3167 1.31667 17.45 1.45L22.55 6.55C22.8333 6.83333 22.975 7.1875 22.975 7.6125C22.975 8.0375 22.8333 8.39167 22.55 8.675L18.675 12.55C18.3917 12.8333 18.0375 12.975 17.6125 12.975C17.1875 12.975 16.8333 12.8333 16.55 12.55ZM17.625 10.8L20.8 7.625L16.175 3H13V6.175L17.625 10.8Z" fill="#2C2961" style="fill:#2C2961;fill:color(display-p3 0.1725 0.1608 0.3804);fill-opacity:1;"/>
</g>
</svg>
