<svg width="25" height="25" viewBox="0 0 25 25" fill="none" xmlns="http://www.w3.org/2000/svg">
<path fill-rule="evenodd" clip-rule="evenodd" d="M10.092 3.68349C9.93416 3.82514 9.76893 3.95833 9.59699 4.08249C9.29899 4.28249 8.96399 4.42049 8.61199 4.49049C8.45899 4.52049 8.29899 4.53349 7.97999 4.55849C7.17899 4.62249 6.77799 4.65449 6.44399 4.77249C6.06199 4.90714 5.71502 5.1257 5.42861 5.41211C5.14221 5.69852 4.92364 6.04548 4.78899 6.42749C4.67099 6.76149 4.63899 7.16249 4.57499 7.96349C4.56351 8.17521 4.54081 8.38617 4.50699 8.59549C4.43699 8.94749 4.29899 9.28249 4.09899 9.58049C4.01199 9.71049 3.90799 9.83249 3.69999 10.0755C3.17899 10.6875 2.91799 10.9935 2.76499 11.3135C2.41199 12.0535 2.41199 12.9135 2.76499 13.6535C2.91799 13.9735 3.17899 14.2795 3.69999 14.8915C3.90799 15.1345 4.01199 15.2565 4.09899 15.3865C4.29899 15.6845 4.43699 16.0195 4.50699 16.3715C4.53699 16.5245 4.54999 16.6845 4.57499 17.0035C4.63899 17.8045 4.67099 18.2055 4.78899 18.5395C4.92364 18.9215 5.14221 19.2685 5.42861 19.5549C5.71502 19.8413 6.06199 20.0598 6.44399 20.1945C6.77799 20.3125 7.17899 20.3445 7.97999 20.4085C8.29899 20.4335 8.45899 20.4465 8.61199 20.4765C8.96399 20.5465 9.29899 20.6855 9.59699 20.8845C9.72699 20.9715 9.84899 21.0755 10.092 21.2835C10.704 21.8045 11.01 22.0655 11.33 22.2185C12.07 22.5715 12.93 22.5715 13.67 22.2185C13.99 22.0655 14.296 21.8045 14.908 21.2835C15.151 21.0755 15.273 20.9715 15.403 20.8845C15.701 20.6845 16.036 20.5465 16.388 20.4765C16.541 20.4465 16.701 20.4335 17.02 20.4085C17.821 20.3445 18.222 20.3125 18.556 20.1945C18.938 20.0598 19.285 19.8413 19.5714 19.5549C19.8578 19.2685 20.0763 18.9215 20.211 18.5395C20.329 18.2055 20.361 17.8045 20.425 17.0035C20.45 16.6845 20.463 16.5245 20.493 16.3715C20.563 16.0195 20.702 15.6845 20.901 15.3865C20.988 15.2565 21.092 15.1345 21.3 14.8915C21.821 14.2795 22.082 13.9735 22.235 13.6535C22.588 12.9135 22.588 12.0535 22.235 11.3135C22.082 10.9935 21.821 10.6875 21.3 10.0755C21.1583 9.91766 21.0252 9.75242 20.901 9.58049C20.7009 9.28254 20.5622 8.94768 20.493 8.59549C20.4592 8.38617 20.4365 8.17521 20.425 7.96349C20.361 7.16249 20.329 6.76149 20.211 6.42749C20.0763 6.04548 19.8578 5.69852 19.5714 5.41211C19.285 5.1257 18.938 4.90714 18.556 4.77249C18.222 4.65449 17.821 4.62249 17.02 4.55849C16.8083 4.547 16.5973 4.52431 16.388 4.49049C16.0358 4.42131 15.7009 4.28261 15.403 4.08249C15.2311 3.95833 15.0658 3.82514 14.908 3.68349C14.296 3.16249 13.99 2.90149 13.67 2.74849C13.3047 2.57366 12.9049 2.48291 12.5 2.48291C12.0951 2.48291 11.6953 2.57366 11.33 2.74849C11.01 2.90149 10.704 3.16249 10.092 3.68349ZM16.873 10.3465C17.0143 10.1918 17.0906 9.98856 17.0858 9.77908C17.0811 9.5696 16.9958 9.37001 16.8476 9.22185C16.6995 9.07368 16.4999 8.98836 16.2904 8.98364C16.0809 8.97891 15.8777 9.05515 15.723 9.19649L10.873 14.0465L9.27699 12.4515C9.1223 12.3102 8.91907 12.2339 8.70959 12.2386C8.50011 12.2434 8.30051 12.3287 8.15235 12.4768C8.00419 12.625 7.91887 12.8246 7.91414 13.0341C7.90942 13.2436 7.98566 13.4468 8.12699 13.6015L10.297 15.7715C10.4496 15.9238 10.6564 16.0093 10.872 16.0093C11.0876 16.0093 11.2944 15.9238 11.447 15.7715L16.873 10.3465Z" fill="#66A721"/>
</svg>
